<?xml version="1.0" standalone="no"?>
<!DOCTYPE svg PUBLIC "-//W3C//DTD SVG 20010904//EN"
 "http://www.w3.org/TR/2001/REC-SVG-20010904/DTD/svg10.dtd">
<svg version="1.0" xmlns="http://www.w3.org/2000/svg"
 width="512.000000pt" height="512.000000pt" viewBox="0 0 512.000000 512.000000"
 preserveAspectRatio="xMidYMid meet">
<metadata>
Created by potrace 1.11, written by Peter Selinger 2001-2013
</metadata>
<g transform="translate(0.000000,512.000000) scale(0.100000,-0.100000)"
fill="#000000" stroke="none">
<path d="M2075 5100 c-3 -5 -12 -7 -20 -3 -8 3 -15 0 -15 -6 0 -6 -6 -11 -13
-11 -8 0 -34 -13 -58 -30 -24 -16 -53 -30 -64 -30 -11 0 -15 -4 -10 -8 6 -4
12 -20 13 -36 3 -23 0 -28 -12 -23 -10 4 -13 1 -10 -8 3 -7 -4 -18 -15 -25
-12 -6 -21 -7 -22 -3 0 4 -2 16 -4 25 -4 20 20 43 35 33 15 -9 12 4 -5 21 -13
14 -15 14 -15 -1 0 -10 -5 -13 -12 -9 -6 4 -8 3 -4 -4 3 -6 2 -13 -3 -17 -5
-3 -8 -14 -6 -24 2 -11 -3 -22 -11 -25 -9 -3 -12 -1 -9 4 4 6 -7 10 -24 10
-42 0 -44 1 -58 19 -7 9 -13 12 -13 6 0 -6 -4 -5 -8 1 -5 8 -14 3 -27 -15 -10
-14 -12 -21 -4 -14 15 12 41 4 41 -13 0 -5 5 -8 11 -6 6 2 4 -5 -6 -15 -13
-15 -14 -22 -5 -31 9 -9 9 -12 1 -12 -7 0 -15 -9 -18 -21 -7 -20 -7 -20 -21
-2 -9 11 -13 13 -12 4 2 -7 -3 -16 -11 -19 -8 -2 -11 0 -8 5 3 5 -3 9 -14 9
-10 0 -19 -4 -19 -9 0 -4 -4 -5 -10 -2 -5 3 -10 1 -10 -5 0 -8 -6 -8 -20 0
-12 6 -20 7 -20 1 0 -5 -8 -8 -17 -6 -10 1 -24 -2 -30 -8 -9 -6 -18 -5 -30 4
-11 10 -14 10 -9 2 4 -8 2 -13 -8 -13 -8 0 -18 5 -21 10 -8 13 -25 3 -25 -13
0 -7 4 -6 10 3 5 8 10 10 10 4 0 -18 -12 -24 -26 -13 -16 13 -37 2 -28 -14 5
-9 4 -9 -6 0 -15 14 -40 6 -40 -13 0 -8 -6 -13 -12 -12 -7 2 -12 -2 -11 -8 1
-6 -9 -17 -22 -24 -14 -7 -25 -19 -25 -26 0 -7 -5 -16 -12 -20 -7 -5 -9 -2 -4
7 4 8 -1 4 -12 -8 -11 -13 -25 -23 -32 -23 -6 0 -9 -4 -5 -9 3 -5 -3 -12 -12
-15 -22 -7 -83 -63 -83 -77 0 -5 -7 -9 -15 -9 -8 0 -15 -5 -15 -11 0 -5 -4 -7
-10 -4 -5 3 -10 2 -10 -3 0 -8 -27 -21 -53 -26 -4 0 -11 -7 -16 -14 -5 -8 -12
-14 -17 -14 -21 -1 -33 -11 -27 -21 3 -5 2 -7 -4 -4 -8 5 -87 -59 -81 -66 3
-2 -16 -24 -89 -105 -12 -13 -30 -45 -40 -70 -9 -26 -19 -49 -22 -52 -7 -6
-13 -29 -14 -47 0 -7 -3 -13 -7 -13 -3 0 -6 -8 -7 -17 -1 -10 -4 -34 -8 -53
-4 -19 -8 -44 -10 -55 -2 -11 -4 -20 -5 -20 -1 0 -3 -22 -5 -50 -2 -27 -4 -52
-5 -55 -1 -3 -2 -8 -1 -12 0 -5 -4 -8 -10 -8 -6 0 -9 -7 -5 -15 3 -8 1 -15 -5
-15 -6 0 -7 -4 -4 -10 3 -5 0 -10 -7 -10 -9 0 -9 -3 2 -10 12 -8 12 -10 1 -10
-8 0 -11 -3 -8 -7 4 -3 -1 -12 -11 -20 -9 -8 -11 -12 -4 -8 14 7 17 -11 2 -20
-6 -4 -8 -11 -5 -16 4 -5 1 -9 -5 -9 -6 0 -8 -4 -5 -10 3 -5 1 -19 -6 -31 -8
-15 -8 -19 0 -15 6 4 11 3 11 -3 0 -5 -4 -11 -9 -13 -11 -4 -18 -104 -8 -114
3 -4 2 -15 -3 -25 -7 -12 -6 -19 3 -23 9 -5 9 -7 -1 -12 -10 -5 -10 -9 -1 -20
7 -8 9 -17 6 -21 -4 -3 -1 -13 6 -21 9 -13 9 -14 0 -8 -16 9 -16 5 -3 -28 7
-18 6 -26 -1 -26 -8 0 -8 -4 0 -13 8 -10 7 -17 -1 -25 -9 -9 -9 -12 1 -12 7 0
9 -5 5 -11 -3 -6 0 -15 7 -20 12 -8 12 -10 0 -18 -11 -7 -11 -9 0 -14 11 -4
11 -6 0 -6 -11 -1 -10 -5 5 -17 10 -8 13 -13 7 -9 -7 3 -13 1 -13 -4 0 -6 4
-11 9 -11 5 0 8 -14 7 -31 -1 -16 1 -32 5 -35 5 -3 6 -11 3 -18 -3 -8 -1 -17
5 -20 7 -5 7 -15 1 -31 -6 -16 -6 -25 0 -25 5 0 10 -10 10 -22 0 -13 1 -33 1
-45 0 -13 6 -23 12 -23 7 0 6 -4 -3 -10 -8 -5 -10 -10 -4 -10 6 0 11 -15 12
-32 0 -18 6 -34 12 -36 8 -3 8 -8 0 -17 -8 -9 -8 -15 0 -20 5 -3 10 -16 10
-29 0 -12 6 -28 12 -35 11 -11 11 -13 0 -7 -6 4 -12 2 -12 -3 0 -6 5 -11 10
-11 6 0 10 -14 10 -31 0 -21 4 -28 12 -23 10 6 9 3 0 -8 -8 -9 -12 -27 -10
-39 2 -19 -3 -24 -29 -30 -18 -3 -36 -2 -42 4 -12 12 -20 -4 -22 -48 -3 -48 0
-75 9 -74 23 4 29 -4 27 -36 -2 -19 0 -35 4 -35 4 0 8 -15 8 -32 1 -18 4 -58
8 -88 4 -30 8 -75 10 -100 1 -25 4 -47 5 -50 1 -3 2 -9 1 -13 -1 -4 6 -21 14
-37 9 -17 13 -30 10 -30 -3 0 5 -17 18 -37 13 -21 45 -78 72 -128 26 -49 54
-97 61 -106 8 -9 11 -19 7 -22 -3 -4 -2 -7 3 -7 11 0 39 -92 38 -127 0 -13 2
-23 6 -23 3 0 5 -21 4 -47 -1 -27 5 -58 12 -70 8 -12 14 -28 14 -36 0 -7 9
-23 20 -35 11 -12 20 -25 20 -29 0 -22 71 -63 115 -67 39 -3 95 12 118 32 21
18 26 14 29 -21 1 -15 6 -27 11 -27 5 0 7 -6 4 -14 -3 -8 -1 -17 6 -20 8 -3 8
-5 -2 -5 -10 -1 -11 -4 -2 -15 7 -8 13 -22 15 -32 3 -11 10 -32 17 -49 7 -16
13 -32 14 -35 1 -3 8 -18 15 -35 7 -16 14 -32 15 -35 1 -3 25 -54 54 -113 36
-74 72 -129 114 -176 34 -38 65 -70 69 -70 4 -1 38 -31 76 -68 39 -38 92 -87
118 -110 27 -24 65 -57 84 -74 19 -17 55 -45 80 -62 25 -17 47 -34 48 -39 2
-4 10 -8 18 -8 8 0 14 -4 14 -8 0 -4 12 -13 28 -19 26 -12 62 -33 72 -43 3 -3
25 -15 50 -28 25 -13 61 -32 80 -42 48 -25 146 -60 170 -60 11 0 20 -4 20 -8
0 -7 28 -13 77 -16 12 0 19 -3 17 -6 -7 -6 138 -30 148 -24 4 3 8 2 8 -3 0 -9
51 -12 330 -16 116 -2 218 1 235 7 51 16 129 53 153 73 57 44 137 115 140 124
2 5 22 28 45 52 23 24 60 66 82 92 22 26 45 53 52 60 6 6 35 41 64 76 29 35
58 69 64 76 20 25 31 39 80 113 27 41 54 78 58 81 5 3 9 10 9 15 0 5 14 31 31
58 18 27 31 53 30 58 -2 4 2 8 8 8 5 0 7 4 4 10 -3 5 -2 10 3 10 9 0 62 163
65 200 1 11 4 20 8 20 4 0 10 21 13 48 4 26 11 61 16 77 13 43 28 138 34 220
1 11 5 26 9 33 5 7 3 12 -4 12 -8 0 -9 3 0 13 6 8 8 17 5 20 -10 10 -11 51 -1
58 4 3 3 17 -2 31 -7 18 -6 29 2 37 6 6 8 11 5 11 -4 0 -3 13 2 30 5 18 5 32
-1 36 -5 3 -7 10 -3 15 8 13 9 338 1 346 -4 3 -2 13 2 22 7 13 24 16 75 15 40
0 67 4 67 10 1 6 3 31 4 56 1 25 2 50 3 56 1 6 27 11 65 10 l62 0 1 53 c1 62
9 70 73 65 l46 -3 0 122 c0 67 -3 124 -6 127 -4 3 -72 5 -152 5 l-144 -1 8 30
c5 16 7 32 4 34 -3 3 0 11 6 19 8 9 8 13 0 13 -7 0 -8 8 -1 24 5 15 5 27 -3
35 -8 8 -8 11 0 11 8 0 9 9 3 30 -5 16 -5 32 -2 34 4 2 7 44 7 93 0 48 5 91
10 96 6 4 5 10 -4 16 -7 5 -9 11 -5 14 7 4 9 137 3 297 -1 27 3 43 17 75 13
31 9 132 -7 152 -8 9 -9 14 -3 10 7 -4 10 19 9 76 -3 106 -3 109 -14 102 -9
-5 -27 32 -23 48 1 4 -2 7 -7 7 -9 0 -22 32 -25 66 -2 11 -6 26 -10 32 -4 7 0
15 9 18 24 9 65 87 60 113 -10 51 -73 160 -129 223 -9 10 -13 25 -9 33 7 20
-28 95 -45 95 -7 0 -15 7 -18 15 -4 8 -10 12 -15 9 -5 -3 -9 0 -9 6 0 6 -4 9
-9 6 -5 -3 -15 1 -22 10 -7 8 -25 22 -41 30 -15 8 -28 19 -28 25 0 6 5 7 12 3
7 -5 8 -3 3 5 -5 9 -11 9 -17 3 -7 -7 -15 -7 -24 1 -36 32 -45 38 -54 32 -6
-4 -9 -1 -8 7 2 7 -3 12 -10 10 -8 -1 -11 2 -7 8 3 5 -1 10 -10 10 -9 0 -13 5
-10 10 6 9 -8 15 -29 11 -5 -1 -4 5 3 13 11 13 10 15 -6 12 -16 -2 -58 31 -65
52 -2 4 -6 6 -10 4 -5 -1 -8 5 -8 15 0 9 -3 14 -6 10 -3 -3 -15 3 -27 14 -11
10 -26 19 -33 19 -6 0 -14 7 -18 15 -3 8 -12 12 -21 9 -8 -3 -15 -2 -15 4 0 6
-20 18 -45 27 -27 11 -42 22 -38 29 3 6 3 8 -2 4 -4 -4 -16 -3 -26 2 -10 6
-29 11 -43 12 -15 1 -26 6 -26 10 0 4 -11 8 -25 8 -14 0 -25 6 -25 13 0 7 -7
4 -15 -7 -14 -19 -21 -11 -16 17 1 4 -7 3 -17 -2 -11 -6 -23 -6 -28 -1 -5 5
-14 2 -21 -5 -11 -12 -8 -13 17 -10 37 4 45 -7 18 -24 -11 -7 -17 -8 -13 -2 3
6 1 11 -4 11 -6 0 -11 -5 -11 -11 0 -7 -7 -8 -17 -4 -10 4 -27 8 -38 9 -11 0
-27 8 -35 16 -8 8 -22 16 -30 18 -8 2 -18 9 -22 15 -6 9 -8 8 -8 -1 0 -7 -5
-10 -10 -7 -6 4 -7 12 -3 18 4 8 1 7 -9 -1 -11 -9 -18 -10 -23 -2 -4 7 -12 7
-23 1 -12 -7 -23 -5 -36 7 -11 9 -16 12 -13 5 5 -8 0 -11 -13 -10 -10 1 -22 7
-24 13 -3 7 -15 18 -27 24 -17 10 -20 9 -14 -2 3 -7 0 -5 -8 5 -11 13 -16 15
-20 5 -3 -10 -8 -9 -23 3 -10 9 -25 14 -33 11 -8 -3 -11 0 -7 7 4 6 1 11 -8
11 -9 0 -16 5 -16 11 0 7 -15 9 -42 5 -24 -4 -77 -9 -118 -12 -41 -3 -83 -10
-94 -16 -13 -7 -16 -7 -12 1 10 15 -7 14 -22 -1 -9 -9 -12 -9 -12 1 0 11 -3
11 -14 2 -11 -10 -17 -8 -26 6 -10 16 -11 16 -6 1 6 -19 -9 -25 -19 -8 -5 8
-11 7 -21 -1 -11 -9 -14 -8 -14 2 0 9 -3 10 -8 4 -11 -17 -52 -16 -52 1 0 8
-5 12 -10 9 -6 -4 -8 -10 -5 -14 6 -11 -66 -9 -83 2 -7 5 -9 13 -6 19 4 6 0 6
-13 -1 -11 -6 -22 -8 -24 -6 -3 2 -16 6 -29 9 -14 3 -45 13 -70 22 -55 20 -88
25 -95 14z"/>
<path d="M2550 5070 c-9 -6 -10 -10 -3 -10 6 0 15 5 18 10 8 12 4 12 -15 0z"/>
<path d="M1771 4968 c-1 -10 3 -18 8 -18 5 0 15 8 22 18 13 15 12 16 -3 4 -13
-10 -17 -10 -21 0 -4 8 -6 7 -6 -4z"/>
<path d="M1693 4907 c0 -8 6 -14 14 -14 9 0 10 4 2 14 -6 7 -12 13 -14 13 -1
0 -2 -6 -2 -13z"/>
<path d="M1695 4849 c-4 -6 -5 -12 -2 -15 2 -3 7 2 10 11 7 17 1 20 -8 4z"/>
<path d="M3870 4779 c0 -5 -4 -7 -10 -4 -6 4 -7 -1 -3 -11 4 -12 8 -14 11 -6
3 10 7 10 18 1 8 -6 14 -8 14 -3 0 5 5 2 10 -6 7 -11 10 -11 10 -2 0 8 5 10
13 6 7 -4 9 -3 4 2 -5 5 -18 9 -30 9 -12 1 -21 6 -19 13 1 7 -2 12 -8 12 -5 0
-10 -5 -10 -11z"/>
<path d="M3802 4761 c3 -15 48 -24 48 -9 0 4 -5 8 -11 8 -5 0 -8 4 -5 8 2 4
-4 8 -15 8 -12 0 -19 -6 -17 -15z"/>
<path d="M4013 4718 c1 -15 6 -26 12 -25 5 1 9 -4 8 -10 -2 -7 2 -13 7 -13 13
0 13 17 -1 25 -6 4 -14 17 -19 29 -8 19 -9 19 -7 -6z"/>
<path d="M3870 4720 c0 -5 5 -10 11 -10 5 0 7 5 4 10 -3 6 -8 10 -11 10 -2 0
-4 -4 -4 -10z"/>
<path d="M3962 4711 c7 -9 13 -18 15 -20 1 -2 1 5 0 16 0 11 -7 20 -14 20 -10
0 -10 -4 -1 -16z"/>
<path d="M3911 4693 c9 -10 8 -13 -2 -13 -11 0 -11 -2 1 -10 8 -5 15 -14 15
-20 0 -17 19 -6 20 12 1 9 -4 14 -11 11 -9 -3 -12 2 -9 14 2 12 -2 20 -11 20
-10 0 -11 -4 -3 -14z"/>
<path d="M3995 4620 c-19 -8 -19 -9 3 -9 12 -1 22 4 22 9 0 6 -1 10 -2 9 -2 0
-12 -4 -23 -9z"/>
<path d="M4063 4575 c-3 -9 -3 -18 -1 -21 3 -3 8 4 11 16 6 23 -1 27 -10 5z"/>
<path d="M4080 4563 c0 -7 5 -15 11 -19 8 -5 8 -9 -1 -14 -8 -5 -8 -10 -2 -14
16 -10 21 18 6 39 -8 10 -14 14 -14 8z"/>
<path d="M4293 3965 c0 -8 4 -12 9 -9 5 3 6 10 3 15 -9 13 -12 11 -12 -6z"/>
</g>
</svg>
